<?xml version="1.0" standalone="no"?>
<!DOCTYPE svg PUBLIC "-//W3C//DTD SVG 20010904//EN"
 "http://www.w3.org/TR/2001/REC-SVG-20010904/DTD/svg10.dtd">
<svg version="1.0" xmlns="http://www.w3.org/2000/svg"
 width="2048.000000pt" height="2048.000000pt" viewBox="0 0 2048.000000 2048.000000"
 preserveAspectRatio="xMidYMid meet">

<g transform="translate(0.000000,2048.000000) scale(0.100000,-0.100000)"
fill="#000000" stroke="none">
<path d="M13544 14315 c-15 -24 -15 -29 6 -94 24 -77 51 -102 88 -82 11 6 22
21 24 33 5 28 -36 148 -54 159 -24 15 -47 9 -64 -16z"/>
<path d="M13885 14293 c-29 -7 -54 -32 -76 -75 -24 -47 -24 -80 -1 -101 25
-23 51 -21 80 6 l24 22 -4 -40 c-9 -71 21 -103 81 -90 40 9 114 -12 151 -43
27 -23 33 -36 39 -90 8 -64 19 -82 53 -82 55 0 65 134 15 209 -32 47 -100 90
-171 106 -49 11 -51 13 -58 53 -10 57 -36 99 -74 117 -18 8 -34 14 -36 14 -1
-1 -12 -4 -23 -6z"/>
<path d="M13376 14234 c-27 -27 -18 -50 40 -103 72 -65 106 -67 127 -8 12 32
-91 127 -137 127 -8 0 -22 -7 -30 -16z"/>
<path d="M6540 14183 c-908 -69 -1776 -503 -2377 -1186 -446 -507 -739 -1129
-841 -1782 -83 -528 -43 -1091 112 -1594 125 -405 309 -768 557 -1097 346
-460 816 -839 1336 -1078 509 -234 1018 -338 1578 -323 539 14 995 127 1480
367 255 126 472 265 672 432 45 37 85 68 90 68 4 0 25 -33 46 -74 83 -162 232
-328 364 -404 60 -35 125 -62 243 -102 130 -44 479 -63 662 -35 173 26 343 95
518 210 239 157 425 406 438 585 4 57 1 73 -22 118 -76 151 -315 310 -471 314
-63 2 -101 -20 -155 -89 -73 -93 -255 -215 -379 -253 -229 -72 -541 58 -541
224 0 35 35 121 68 167 l27 37 169 1 c165 1 548 38 639 62 43 11 63 43 53 83
-12 47 -32 49 -214 25 -127 -16 -233 -22 -442 -25 l-275 -3 -38 -43 c-21 -24
-59 -85 -84 -135 -42 -84 -46 -99 -47 -166 0 -60 4 -82 27 -128 90 -185 388
-305 632 -255 89 18 227 80 326 147 35 23 101 80 147 126 81 81 85 83 120 77
118 -21 322 -190 322 -267 0 -32 -48 -136 -97 -210 -60 -91 -138 -169 -257
-256 -209 -156 -415 -223 -690 -224 -367 -1 -587 74 -764 262 -239 253 -338
648 -251 1001 113 456 409 846 752 988 330 138 660 109 911 -81 149 -113 283
-329 311 -502 10 -64 15 -76 41 -85 37 -14 72 7 85 50 24 80 -70 326 -179 470
-178 235 -463 380 -749 380 -120 0 -111 -16 -84 150 11 64 25 180 32 258 12
132 12 146 -4 175 -20 38 -48 57 -95 68 -18 4 -291 -3 -605 -16 -315 -13 -707
-29 -872 -35 -165 -5 -369 -13 -454 -17 l-153 -6 -18 -42 c-10 -23 -29 -51
-42 -61 -20 -16 -152 -229 -471 -760 -69 -115 -79 -150 -50 -180 19 -19 0 -19
641 7 150 6 275 9 278 6 10 -10 -129 -189 -229 -293 -328 -342 -751 -542
-1234 -585 -237 -20 -534 17 -764 97 -529 183 -945 573 -1154 1084 -120 292
-169 589 -145 875 52 612 355 1122 873 1468 331 221 693 319 1121 304 349 -12
709 -127 992 -316 107 -72 285 -229 368 -327 104 -120 132 -144 168 -144 34 1
22 -7 857 556 162 110 318 221 348 248 73 66 73 94 -2 206 -176 264 -540 631
-830 836 -506 359 -1087 576 -1708 639 -128 13 -490 18 -617 8z m495 -123
c585 -40 1148 -227 1644 -547 76 -49 164 -115 379 -283 82 -64 232 -218 337
-344 50 -59 109 -130 131 -156 55 -63 104 -135 104 -152 0 -7 -253 -183 -562
-391 l-562 -377 -40 47 c-174 208 -380 374 -642 516 -176 96 -334 153 -549
197 -148 31 -455 38 -635 15 -383 -49 -731 -195 -1025 -430 -240 -192 -392
-372 -530 -627 -77 -143 -159 -382 -200 -583 -60 -291 -38 -707 51 -995 217
-694 798 -1226 1514 -1384 735 -162 1515 103 1997 678 115 138 263 365 263
405 0 9 -30 11 -127 7 -71 -4 -254 -11 -408 -16 -154 -6 -317 -13 -362 -16
-48 -3 -83 -2 -83 3 0 5 50 92 111 194 62 101 166 274 232 384 66 110 126 207
133 216 12 13 46 17 172 23 86 3 270 11 407 17 138 7 261 12 275 12 14 0 277
11 585 23 308 12 563 19 568 15 16 -15 -39 -520 -58 -540 -3 -2 -42 -15 -87
-28 -368 -106 -655 -361 -844 -749 -81 -168 -135 -339 -169 -539 -19 -110 -4
-354 29 -482 l14 -53 -82 -68 c-316 -267 -657 -464 -1039 -603 -1026 -371
-2151 -234 -3067 376 -187 124 -327 241 -505 419 -280 280 -451 516 -659 908
-98 185 -190 438 -254 703 -70 284 -90 461 -92 792 -1 330 5 386 85 753 232
1067 988 1973 2001 2399 492 206 1028 297 1549 261z"/>
<path d="M13235 14131 c-51 -23 -115 -94 -150 -169 -22 -43 -29 -77 -33 -140
l-5 -83 -71 8 c-267 30 -469 -46 -599 -225 -102 -141 -138 -365 -83 -522 79
-228 277 -353 534 -337 53 4 106 8 117 9 17 3 21 -4 26 -52 6 -59 26 -105 56
-132 50 -45 132 -55 194 -22 28 14 30 13 67 -24 39 -39 74 -52 138 -52 33 0
64 28 64 57 0 25 -39 53 -74 53 -46 0 -69 24 -61 62 10 44 -16 78 -61 78 -28
0 -48 -10 -84 -40 -56 -47 -92 -52 -115 -16 -22 33 -23 118 -2 150 47 72 -16
123 -95 77 -52 -30 -136 -44 -239 -39 -80 3 -103 8 -159 36 -146 71 -220 191
-220 355 0 124 29 215 98 307 41 53 71 77 147 115 140 70 295 73 483 9 77 -26
111 19 72 95 -22 43 -28 120 -15 182 10 50 62 132 100 158 30 20 37 21 68 10
56 -20 86 3 73 57 -4 16 -19 30 -41 40 -46 19 -81 17 -130 -5z"/>
<path d="M15330 14124 c-416 -49 -759 -182 -1076 -420 -134 -100 -219 -214
-264 -356 -27 -84 -24 -118 13 -138 27 -14 29 -14 53 13 13 15 24 35 24 43 0
9 20 58 45 110 56 117 138 202 293 305 325 214 699 332 1062 333 177 0 231 -9
354 -61 72 -30 106 -22 106 26 0 75 -200 140 -445 146 -71 2 -146 1 -165 -1z"/>
<path d="M16060 13972 c-25 -8 -50 -34 -50 -52 0 -23 32 -50 57 -50 12 0 63
-16 113 -35 98 -37 129 -42 148 -23 16 16 15 63 -1 76 -30 26 -242 92 -267 84z"/>
<path d="M16422 13798 c-7 -7 -12 -21 -12 -33 0 -12 5 -26 12 -33 7 -7 21 -12
33 -12 12 0 26 5 33 12 7 7 12 21 12 33 0 12 -5 26 -12 33 -7 7 -21 12 -33 12
-12 0 -26 -5 -33 -12z"/>
<path d="M16562 13728 c-24 -32 -22 -55 9 -94 51 -63 137 -197 160 -250 35
-82 48 -135 68 -287 26 -188 47 -258 136 -447 138 -292 170 -451 125 -625 -39
-155 -125 -293 -240 -388 -115 -94 -297 -159 -445 -157 -137 2 -134 2 -147
-25 -36 -79 143 -107 347 -55 214 55 389 180 493 353 44 73 99 219 112 299 29
179 -10 367 -127 608 -104 214 -123 278 -148 493 -18 154 -46 246 -103 342
-66 111 -132 203 -158 224 -30 24 -67 27 -82 9z"/>
<path d="M17225 13595 c-27 -13 -61 -33 -75 -44 -24 -19 -28 -19 -96 -4 -84
19 -131 12 -173 -22 -37 -32 -48 -71 -25 -96 22 -24 45 -24 77 1 35 28 82 25
155 -10 70 -35 88 -31 118 19 23 40 83 71 134 71 34 0 48 -6 76 -34 30 -30 34
-40 33 -82 0 -27 -8 -69 -18 -94 -27 -65 -13 -97 47 -112 67 -17 142 -94 172
-177 27 -72 50 -90 86 -66 56 37 8 172 -97 269 -33 31 -64 56 -68 56 -4 0 -8
42 -7 93 1 102 -15 146 -71 199 -66 63 -179 77 -268 33z"/>
<path d="M14789 13347 c-156 -44 -268 -184 -277 -348 -4 -66 -1 -84 20 -131
53 -115 165 -186 308 -195 140 -9 223 30 301 140 50 72 66 119 51 152 -10 22
-18 26 -44 23 -28 -3 -37 -11 -58 -52 -37 -68 -87 -126 -126 -142 -48 -20
-135 -17 -197 6 -96 36 -154 121 -141 208 33 226 295 324 427 160 77 -96 82
-101 105 -94 59 19 40 98 -43 181 -85 86 -217 123 -326 92z"/>
<path d="M13891 13154 c-13 -9 -34 -40 -46 -69 -14 -32 -39 -64 -63 -84 -47
-37 -129 -144 -166 -218 -14 -28 -35 -87 -47 -130 -54 -196 25 -503 128 -503
16 0 34 5 41 12 16 16 15 63 -2 77 -7 6 -26 39 -41 72 -21 48 -28 82 -32 160
-10 175 38 295 176 441 43 46 82 94 86 108 4 14 16 37 26 52 28 39 25 76 -7
88 -31 12 -25 13 -53 -6z"/>
<path d="M14860 13128 c-82 -30 -115 -146 -59 -207 24 -25 84 -28 117 -5 31
21 53 68 55 114 2 70 -55 119 -113 98z"/>
<path d="M16150 12999 c-66 -13 -142 -55 -193 -108 -146 -150 -151 -352 -12
-480 75 -68 153 -96 268 -94 116 1 179 31 249 118 64 79 85 133 66 172 -15 31
-50 42 -74 22 -9 -7 -25 -32 -36 -56 -29 -62 -87 -122 -133 -138 -78 -26 -190
-3 -256 53 -79 68 -91 157 -36 264 38 74 98 120 180 138 94 21 169 -13 245
-113 44 -58 74 -71 100 -45 23 23 13 65 -33 127 -83 113 -208 165 -335 140z"/>
<path d="M17497 12905 c-20 -19 -22 -58 -4 -73 22 -18 126 -54 148 -50 29 4
43 29 36 60 -5 18 -21 31 -57 47 -74 32 -104 36 -123 16z"/>
<path d="M15382 12855 c-87 -27 -134 -81 -151 -172 -16 -83 14 -126 115 -167
64 -26 239 -66 289 -66 57 0 115 93 115 184 0 31 -36 116 -62 146 -27 32 -77
60 -134 75 -70 18 -115 18 -172 0z m182 -117 c57 -29 85 -80 78 -140 -5 -45
-13 -46 -121 -19 -100 27 -181 61 -181 77 0 61 74 108 154 99 27 -4 59 -11 70
-17z"/>
<path d="M17421 12794 c-26 -18 -27 -55 -3 -76 26 -23 134 -55 162 -48 21 5
25 12 25 40 0 39 -26 58 -111 83 -46 14 -54 14 -73 1z"/>
<path d="M16168 12762 c-52 -32 -78 -131 -47 -181 8 -12 30 -26 51 -31 62 -17
105 11 128 83 33 103 -48 182 -132 129z"/>
<path d="M17662 12657 c-40 -15 -92 -63 -92 -86 0 -19 30 -51 48 -51 6 0 32
11 59 25 51 28 102 27 172 -2 171 -72 315 -246 382 -463 31 -97 33 -273 5
-365 -42 -140 -138 -259 -253 -313 -52 -24 -70 -27 -163 -27 -97 0 -110 2
-170 31 -36 17 -87 49 -113 72 -27 23 -55 42 -63 42 -26 0 -64 -47 -64 -80 0
-33 -25 -90 -39 -90 -25 0 -44 16 -61 51 -34 65 -90 76 -111 21 -14 -35 11
-98 54 -139 73 -71 171 -61 224 23 15 24 32 44 36 44 5 0 29 -11 53 -25 201
-112 479 -70 627 95 110 121 165 263 172 440 9 239 -64 432 -229 609 -140 149
-350 233 -474 188z"/>
<path d="M14120 12149 c-80 -22 -168 -44 -197 -51 -76 -16 -115 -60 -121 -135
-6 -82 13 -255 32 -292 36 -69 106 -72 207 -7 108 69 200 80 228 27 6 -11 11
-44 11 -73 0 -111 -41 -191 -122 -238 -30 -16 -68 -30 -86 -30 -99 0 -149
-104 -83 -171 27 -26 35 -29 99 -29 60 0 79 5 143 37 132 66 209 167 245 322
21 86 14 199 -16 268 -59 139 -215 191 -384 129 -71 -25 -86 -26 -86 -1 0 17
-4 15 195 59 143 32 163 39 188 66 44 50 34 115 -23 145 -41 21 -66 18 -230
-26z"/>
<path d="M15475 12161 c-139 -34 -151 -53 -149 -236 1 -71 9 -220 19 -330 9
-110 20 -252 24 -315 8 -120 15 -142 50 -174 16 -15 35 -19 79 -18 130 3 442
81 515 128 80 53 137 169 137 283 0 130 -52 224 -157 286 -60 36 -61 37 -51
67 18 51 3 135 -34 190 -82 122 -244 166 -433 119z m215 -193 c55 -28 60 -51
23 -100 -24 -31 -36 -37 -82 -43 -30 -4 -65 -11 -78 -16 -29 -11 -29 -9 -37
93 l-6 77 28 4 c68 10 110 6 152 -15z m188 -349 c50 -25 62 -48 62 -122 0 -82
-22 -108 -112 -135 -110 -33 -223 -56 -242 -49 -11 5 -16 19 -16 51 0 25 -5
91 -11 146 -7 55 -10 103 -7 106 12 11 99 22 187 23 78 1 103 -3 139 -20z"/>
<path d="M10647 12082 c-16 -9 -58 -61 -95 -114 -36 -54 -71 -98 -78 -98 -7 0
-57 16 -111 35 -54 19 -113 35 -131 35 -47 0 -82 -38 -82 -89 0 -52 41 -88
143 -125 42 -15 77 -33 77 -38 0 -6 -21 -49 -47 -97 l-46 -87 -111 18 c-118
19 -138 17 -173 -14 -30 -28 -36 -63 -18 -102 19 -40 47 -54 142 -69 43 -7 73
-16 73 -23 0 -7 -13 -42 -30 -78 -53 -120 -49 -175 15 -202 31 -12 39 -12 70
0 32 14 42 28 89 129 l54 115 138 -34 c75 -19 139 -36 142 -38 2 -3 -10 -50
-28 -106 -40 -127 -41 -166 -5 -197 28 -24 74 -30 106 -13 24 13 46 58 89 178
l33 94 42 -6 c23 -4 65 -16 94 -26 98 -38 170 -16 184 58 14 66 -49 123 -169
154 -27 6 -53 15 -57 18 -10 9 23 80 37 80 6 0 51 -20 100 -45 48 -25 101 -45
117 -45 72 0 120 61 99 125 -15 44 -44 67 -153 118 -73 35 -87 45 -83 62 2 11
25 71 51 133 52 128 53 155 3 197 -32 27 -72 32 -113 13 -28 -12 -70 -87 -115
-203 -13 -33 -24 -62 -26 -63 -5 -7 -174 62 -174 71 0 5 23 42 51 82 35 52 51
85 52 108 2 84 -84 133 -156 89z m101 -530 c23 -9 42 -21 42 -27 0 -26 -40
-110 -53 -113 -17 -3 -236 43 -244 52 -5 4 54 110 79 143 7 8 25 5 71 -14 34
-13 81 -32 105 -41z"/>
<path d="M14960 12067 c-41 -20 -59 -74 -95 -288 -20 -112 -44 -238 -56 -279
-49 -180 -60 -293 -33 -335 24 -36 74 -49 117 -31 45 18 64 55 82 154 7 43 20
104 28 137 18 69 47 248 73 447 16 129 16 138 0 163 -16 24 -53 45 -79 45 -7
0 -23 -6 -37 -13z"/>
<path d="M11875 12044 c-180 -31 -304 -62 -341 -85 -54 -33 -60 -64 -40 -203
18 -126 75 -383 126 -571 24 -88 36 -115 60 -137 56 -52 138 -27 159 48 9 33
-12 157 -49 284 -5 19 -10 40 -10 46 0 7 44 18 108 28 126 20 171 39 193 83
20 41 14 75 -18 108 -31 30 -48 31 -188 5 -161 -30 -149 -34 -170 61 -9 44
-14 83 -11 86 4 4 50 15 104 24 295 54 316 59 339 81 31 29 39 78 19 116 -31
60 -71 64 -281 26z"/>
<path d="M12495 12049 c-102 -8 -157 -26 -178 -61 -12 -18 -17 -92 -23 -368
-12 -472 -12 -502 10 -535 38 -57 117 -65 160 -15 26 31 39 130 41 295 l0 90
105 6 c116 7 199 22 229 41 47 29 55 106 15 143 -33 30 -58 33 -169 18 -49 -7
-111 -12 -137 -13 l-48 0 0 100 0 100 206 0 206 0 29 29 c55 55 29 154 -44
165 -58 9 -311 12 -402 5z"/>
<path d="M13290 11990 c-84 -39 -205 -193 -225 -287 -9 -44 10 -107 45 -147
l29 -33 -24 -23 c-91 -85 -100 -251 -20 -355 44 -58 99 -87 177 -93 62 -4 74
-2 133 27 81 40 163 119 201 191 22 44 28 69 28 125 1 79 -20 129 -73 179
l-30 29 39 45 c45 50 54 85 48 176 -3 51 -10 71 -32 101 -57 74 -205 107 -296
65z m120 -204 c0 -8 -24 -35 -54 -60 -95 -82 -119 -45 -33 52 24 26 87 32 87
8z m8 -358 c31 -25 -3 -98 -66 -142 -61 -42 -102 -31 -102 28 0 23 12 42 55
83 57 55 76 60 113 31z"/>
<path d="M7097 11642 c-19 -21 -22 -64 -7 -92 34 -63 267 -130 315 -90 21 17
19 63 -3 83 -10 9 -51 23 -91 32 -83 17 -108 29 -134 62 -22 28 -58 30 -80 5z"/>
<path d="M6314 11612 c-6 -4 -24 -32 -39 -62 -38 -77 -68 -114 -120 -150 -39
-27 -45 -36 -45 -66 0 -27 5 -37 24 -45 34 -16 66 -5 126 42 56 44 123 140
142 200 9 32 8 42 -6 64 -16 25 -57 34 -82 17z"/>
<path d="M17035 11580 c-4 -6 -29 -22 -56 -36 -56 -28 -67 -44 -51 -80 14 -30
61 -32 116 -5 30 16 43 18 61 9 58 -26 109 29 69 74 -35 39 -124 63 -139 38z"/>
<path d="M7245 11294 c-168 -30 -249 -73 -314 -167 -35 -51 -58 -68 -125 -90
-92 -31 -153 -21 -246 42 -102 67 -201 75 -399 32 -130 -29 -204 -56 -336
-120 -66 -33 -187 -81 -268 -107 -152 -49 -177 -65 -177 -110 0 -11 10 -36 23
-55 21 -32 27 -34 95 -40 85 -6 122 -29 135 -80 23 -91 71 -215 102 -264 66
-102 165 -136 345 -115 226 25 399 88 487 176 80 80 133 240 121 365 -4 40 -1
52 19 73 23 26 33 29 106 41 57 9 103 -17 112 -63 11 -60 71 -175 120 -230 57
-64 146 -109 241 -123 91 -14 259 -3 359 22 44 12 91 23 104 25 51 10 132 57
165 96 50 58 68 146 64 310 -3 125 -2 128 22 153 14 14 49 33 78 43 64 23 81
44 82 99 0 33 -5 46 -27 63 -26 20 -36 21 -198 17 -112 -3 -201 0 -260 9 -114
18 -327 16 -430 -2z m444 -130 c146 -33 160 -53 168 -244 8 -177 -8 -229 -79
-266 -60 -31 -214 -64 -328 -70 -199 -11 -281 22 -345 139 -39 70 -70 191 -70
269 1 52 4 61 35 93 51 53 149 78 385 99 59 5 161 -4 234 -20z m-1213 -189
c34 -22 56 -70 69 -152 21 -131 3 -248 -50 -317 -55 -72 -268 -148 -452 -162
-183 -13 -217 21 -287 286 -28 106 -22 134 39 188 151 133 570 230 681 157z"/>
<path d="M7213 11040 c-17 -10 -37 -28 -42 -39 -17 -30 -13 -99 9 -175 32
-111 89 -154 164 -122 26 11 41 26 52 52 14 34 14 43 -10 135 -29 114 -46 143
-88 158 -42 15 -48 14 -85 -9z"/>
<path d="M6178 10821 c-33 -29 -33 -30 -32 -118 0 -62 6 -99 18 -125 40 -83
150 -86 189 -5 17 34 18 44 6 130 -11 77 -18 96 -40 120 -39 39 -97 38 -141
-2z"/>
<path d="M12610 10705 c-197 -39 -399 -153 -558 -316 -190 -194 -348 -498
-407 -784 -50 -241 -15 -505 90 -683 133 -226 286 -352 500 -412 174 -49 430
-22 625 68 41 18 181 115 200 137 21 25 37 18 126 -54 101 -81 275 -175 308
-165 33 10 71 50 147 158 38 56 104 146 144 201 108 144 109 147 94 208 -7 29
-16 59 -20 67 -43 82 -114 337 -143 512 -22 131 -26 181 -24 348 1 172 -1 205
-21 279 -25 97 -50 150 -98 209 -105 129 -228 184 -377 168 -57 -7 -74 -13
-98 -36 -34 -34 -36 -72 -7 -99 19 -18 34 -20 118 -18 90 2 100 0 150 -28 68
-38 117 -97 149 -183 23 -61 26 -86 32 -282 12 -346 52 -555 169 -879 l30 -85
-57 -80 c-32 -45 -94 -132 -137 -193 -43 -62 -83 -113 -89 -113 -36 0 -192
109 -304 213 -47 43 -57 49 -85 43 -20 -4 -47 -22 -72 -49 -100 -110 -234
-184 -383 -213 -87 -17 -225 -18 -308 -3 -88 16 -213 80 -284 146 -62 57 -150
170 -150 192 0 7 -9 29 -19 49 -172 337 -32 897 318 1266 203 214 511 327 723
266 68 -20 102 -7 106 41 2 27 -3 41 -23 61 -53 53 -217 73 -365 43z"/>
<path d="M6886 10225 c-236 -40 -440 -78 -453 -84 -46 -21 -39 -104 11 -117
13 -3 61 1 107 10 45 9 85 13 88 11 2 -3 14 -28 25 -57 33 -81 58 -93 180 -91
83 1 119 7 186 30 105 35 124 57 125 146 l0 62 105 18 c116 20 140 34 140 82
0 37 -15 53 -56 59 -16 3 -222 -28 -458 -69z m142 -142 c-4 -32 -54 -55 -69
-32 -23 36 -7 55 49 58 20 1 23 -3 20 -26z m-198 -24 c17 -30 5 -52 -22 -43
-39 12 -52 49 -20 57 30 8 31 8 42 -14z"/>
<path d="M12653 9968 c-93 -89 -178 -207 -233 -323 -56 -117 -74 -184 -74
-280 -1 -84 15 -134 57 -182 41 -46 82 -63 157 -63 106 0 208 52 282 144 l40
51 -5 129 c-4 82 -2 154 5 198 15 87 1 121 -50 126 -37 4 -60 -11 -74 -47 -16
-42 -25 -162 -19 -241 7 -86 -8 -130 -58 -173 -39 -32 -121 -53 -151 -37 -116
62 23 425 238 621 34 31 62 63 62 71 0 8 -9 27 -21 42 -15 19 -30 26 -56 26
-29 0 -45 -10 -100 -62z"/>
<path d="M14784 9815 c-202 -31 -334 -76 -359 -124 -51 -99 -227 -620 -274
-811 -46 -187 -62 -305 -68 -515 -6 -212 11 -407 49 -550 33 -125 54 -139 263
-175 123 -21 311 -26 349 -9 19 9 44 44 83 113 163 294 280 476 360 561 78 83
181 135 268 135 75 0 114 -22 152 -87 24 -42 28 -57 27 -123 -2 -78 -11 -114
-80 -290 -39 -101 -64 -184 -64 -213 0 -10 10 -28 23 -41 19 -19 38 -24 113
-30 179 -14 284 -33 379 -67 43 -16 87 -27 97 -24 37 13 149 172 241 345 91
171 163 369 188 518 5 31 12 73 15 92 3 19 7 36 8 38 2 1 29 -10 61 -24 50
-23 67 -26 134 -22 51 3 90 12 118 26 23 12 44 22 47 22 3 0 8 -17 11 -37 15
-90 46 -125 110 -125 86 0 109 51 88 193 -20 135 -14 185 42 317 63 153 87
274 83 419 -3 105 -5 114 -29 138 -29 30 -82 41 -121 26 -49 -19 -61 -52 -74
-205 -7 -77 -20 -165 -29 -193 l-16 -53 -40 29 c-105 76 -246 53 -353 -58
l-40 -41 -26 78 c-54 161 -157 282 -307 359 -118 60 -207 78 -383 77 -170 -1
-272 -20 -429 -82 -110 -43 -114 -42 -85 26 54 126 68 235 39 292 -19 36 -68
73 -120 89 -59 19 -340 23 -451 6z m351 -125 c38 -6 76 -16 83 -23 22 -18 9
-90 -38 -206 -55 -137 -59 -162 -29 -206 13 -19 34 -40 47 -47 26 -13 15 -16
232 67 140 54 254 77 390 78 318 1 522 -141 586 -409 26 -109 24 -380 -4 -509
-46 -211 -130 -415 -247 -600 -75 -118 -96 -140 -122 -127 -31 17 -209 50
-308 57 -49 4 -91 9 -93 10 -2 2 21 68 51 148 98 257 104 353 32 497 -29 58
-107 129 -162 147 -92 32 -240 2 -348 -69 -57 -38 -171 -151 -191 -191 -9 -16
-44 -73 -79 -127 -35 -54 -105 -172 -155 -264 -58 -105 -98 -166 -109 -167
-104 -7 -367 27 -396 51 -7 5 -21 47 -31 93 -16 70 -19 123 -19 372 0 308 6
363 60 585 67 276 219 736 254 771 9 9 50 24 91 33 186 42 380 56 505 36z
m1699 -812 c29 -45 24 -78 -15 -109 -44 -36 -106 -50 -115 -25 -12 30 7 85 40
121 38 40 69 45 90 13z"/>
<path d="M10267 9370 c-173 -55 -254 -164 -179 -240 34 -34 90 -44 176 -33 47
6 63 13 79 35 27 36 16 75 -25 92 l-31 14 50 10 c38 8 66 8 106 0 48 -10 58
-9 81 5 26 17 33 47 20 82 -20 52 -165 71 -277 35z"/>
<path d="M11084 9004 c-32 -25 -75 -54 -95 -64 -66 -34 -83 -77 -44 -116 21
-21 31 -24 58 -19 46 10 124 59 180 113 37 37 47 53 47 79 0 35 -21 53 -63 53
-13 0 -50 -21 -83 -46z"/>
<path d="M17979 8911 c-44 -44 -40 -86 21 -213 27 -57 68 -160 91 -228 45
-138 50 -147 96 -166 74 -31 140 17 187 137 16 41 47 110 69 154 100 202 101
292 2 325 -30 10 -41 9 -73 -7 -38 -19 -52 -40 -107 -168 l-26 -60 -55 105
c-30 58 -66 115 -80 128 -37 32 -88 30 -125 -7z"/>
<path d="M17474 8916 c-76 -34 -141 -117 -175 -227 -47 -151 5 -289 135 -356
94 -49 248 -33 313 32 85 85 3 205 -119 175 -60 -15 -98 -10 -116 17 -12 19
-12 23 -1 27 111 31 127 38 163 75 34 35 40 48 44 94 6 72 -17 120 -73 152
-48 28 -120 33 -171 11z"/>
<path d="M16578 7361 c-77 -25 -125 -76 -173 -185 l-26 -58 -37 5 c-20 4 -108
9 -195 13 l-158 7 -20 39 c-127 249 -348 139 -454 -227 -45 -156 -67 -306 -69
-472 -1 -139 1 -154 20 -180 14 -19 32 -29 53 -31 56 -6 62 7 55 127 -10 166
28 396 96 581 30 84 87 176 116 187 22 8 51 -24 69 -78 26 -77 49 -89 169 -89
55 0 176 -5 268 -11 198 -14 195 -16 227 90 40 131 89 170 175 137 86 -33 160
-137 287 -401 69 -144 116 -268 145 -378 19 -75 37 -97 79 -97 67 0 81 59 45
185 -33 115 -89 251 -169 410 -127 251 -206 351 -317 402 -59 27 -143 38 -186
24z"/>
<path d="M15818 6829 c-21 -12 -24 -69 -6 -87 18 -18 63 -14 81 6 46 50 -16
116 -75 81z"/>
<path d="M16380 6740 c-38 -38 -14 -100 38 -100 29 0 62 34 62 64 0 52 -62 74
-100 36z"/>
<path d="M15766 6632 c-57 -61 -55 -151 6 -209 45 -42 97 -57 175 -50 58 6 67
4 113 -25 99 -61 194 -44 238 42 41 80 14 160 -54 160 -38 0 -64 -29 -64 -72
0 -48 -47 -34 -83 24 -23 38 -54 43 -107 19 -53 -24 -99 -27 -126 -7 -19 14
-19 15 4 38 43 46 18 108 -44 108 -20 0 -39 -10 -58 -28z"/>
</g>
</svg>
